<svg width="100" height="100" viewBox="0 0 100 100" fill="none" xmlns="http://www.w3.org/2000/svg">
<path d="M60.699 13.6021C61.8006 13.6021 62.699 12.7036 62.699 11.6021V4.60205C62.699 3.50045 61.8005 2.60205 60.699 2.60205C59.5974 2.60205 58.699 3.50049 58.699 4.60205V11.6021C58.6013 12.6021 59.6013 13.6021 60.699 13.6021Z" fill="#FAFAFA"/>
<path d="M53.1992 15.398C53.5977 15.7964 54.0977 15.9996 54.5976 15.9996C55.0976 15.9996 55.5976 15.8003 55.996 15.398C56.3945 14.9996 56.5976 14.4996 56.5976 13.9996C56.5976 13.4996 56.3984 12.898 55.996 12.6012L51.0976 7.6012C50.2968 6.80042 48.996 6.80042 48.1992 7.6012C47.3984 8.40198 47.3984 9.7028 48.1992 10.4996L53.1992 15.398Z" fill="#FAFAFA"/>
<path d="M45.1992 22H52.1992C53.3008 22 54.1992 21.1016 54.1992 20C54.1992 18.8984 53.3008 18 52.1992 18H45.1992C44.0976 18 43.1992 18.8984 43.1992 20C43.1992 21.1016 44.1016 22 45.1992 22Z" fill="#FAFAFA"/>
<path d="M76.1992 18H69.1992C68.0976 18 67.1992 18.8984 67.1992 20C67.1992 21.1016 68.0977 22 69.1992 22H76.1992C77.3008 22 78.1992 21.1016 78.1992 20C78.1992 18.8984 77.3008 18 76.1992 18Z" fill="#FAFAFA"/>
<path d="M66.6992 16.0001C67.1992 16.0001 67.6992 15.8009 68.0976 15.3985L73.0976 10.3985C73.8984 9.59774 73.8984 8.29692 73.0976 7.50012C72.2968 6.69934 70.996 6.69934 70.1992 7.50012L65.3008 12.5001C64.9023 12.8986 64.6992 13.3986 64.6992 13.8985C64.6992 14.3985 64.8984 14.8985 65.3008 15.2969C65.6016 15.8008 66.1016 16 66.6992 16V16.0001Z" fill="#FAFAFA"/>
<path d="M54.9998 47.1991V43.9999C54.9998 41.9999 53.3982 40.3983 51.3982 40.3983H49.9998C49.9998 39.0975 50.199 33.4999 53.199 33.4999C60.8982 33.4999 63.199 30.4999 63.199 20.4999C63.199 19.1015 62.0974 17.9999 60.699 17.9999C59.3006 17.9999 58.199 19.1015 58.199 20.4999C58.199 28.4999 57.3982 28.4999 53.3006 28.4999C48.199 28.4999 45.1014 32.9999 45.1014 40.3979H43.8006C41.8006 40.3979 40.199 41.9995 40.199 43.9995V47.1987C29.699 50.3979 22 60.1987 22 71.8007C22 85.9997 33.5 97.4997 47.699 97.4997C61.898 97.4997 73.398 85.9997 73.398 71.8007C73.1988 60.1987 65.4996 50.3987 55 47.1987L54.9998 47.1991ZM58.699 75.6011H47.5C45.3984 75.6011 43.6992 73.9019 43.6992 71.8003V57.6983C43.6992 55.5967 45.3984 53.8975 47.5 53.8975C49.6016 53.8975 51.3008 55.5967 51.3008 57.6983V67.9993H58.8008C60.9024 67.9993 62.6016 69.6985 62.6016 71.8001C62.6016 73.8978 60.8008 75.6009 58.6993 75.6009L58.699 75.6011Z" fill="#FAFAFA"/>
</svg>
