<svg width="18" height="23" viewBox="0 0 18 23" fill="none" xmlns="http://www.w3.org/2000/svg">
<path d="M4.032 10.9061V13.7712C4.032 13.8378 4.08637 13.8921 4.15293 13.8921H15.0036C15.0701 13.8921 15.1245 13.8378 15.1245 13.7712L15.1236 10.7844C15.1236 10.5866 15.2333 10.4057 15.4076 10.31C16.8889 9.49814 17.8967 7.89777 17.8967 6.05553C17.8967 3.39201 15.792 1.23297 13.1941 1.23297C12.9588 1.23297 12.7282 1.25078 12.5032 1.28547C11.6679 0.504536 10.5569 0.0273438 9.33734 0.0273438C8.06422 0.0273438 6.90926 0.547664 6.06254 1.39047C5.87129 1.36703 5.67722 1.35297 5.47941 1.35297C2.88262 1.35297 0.776855 3.45765 0.776855 6.05553C0.776855 8.01866 1.97966 9.69969 3.68878 10.4036C3.89409 10.488 4.0319 10.6839 4.0319 10.9061L4.032 10.9061ZM13.0958 17.821C11.9258 17.5622 10.7436 17.8022 9.71136 18.4144C9.59979 18.481 9.45916 18.481 9.34668 18.4153C8.21136 17.7535 6.91116 17.5275 5.66148 17.8885C4.18586 18.3141 3.08532 19.471 2.5302 20.9588C2.51145 21.0094 2.52832 21.0666 2.57051 21.0985C3.83238 22.0622 5.38019 22.4541 6.85571 22.0285C7.88884 21.7303 8.73726 21.0732 9.34379 20.1957C9.36723 20.1619 9.41597 20.161 9.43941 20.1947C10.1107 21.1163 11.0454 21.781 12.162 22.0275C13.662 22.3594 15.1817 21.871 16.3807 20.8294C16.421 20.7947 16.4341 20.7357 16.4126 20.6869C15.7676 19.2366 14.5957 18.1528 13.0958 17.8211L13.0958 17.821ZM4.9968 15.8166C4.9968 15.9084 4.99023 16.1128 5.11773 16.2084C5.33805 16.3744 5.64367 15.9881 6.20241 15.9881C6.76116 15.9881 7.0668 16.3735 7.28709 16.2084C7.41553 16.1119 7.40803 15.9075 7.40803 15.8166C7.40803 15.151 6.86803 14.611 6.20242 14.611C5.5368 14.611 4.9968 15.151 4.9968 15.8166H4.9968ZM11.8687 15.8166C11.8687 15.9084 11.8622 16.1128 11.9897 16.2084C12.21 16.3744 12.5156 15.9881 13.0743 15.9881C13.6331 15.9881 13.9387 16.3735 14.159 16.2084C14.2875 16.1119 14.28 15.9075 14.28 15.8166C14.28 15.151 13.74 14.611 13.0743 14.611C12.4087 14.611 11.8687 15.151 11.8687 15.8166H11.8687Z" fill="#5CA4A9"/>
</svg>
