<svg width="24" height="24" viewBox="0 0 24 24" fill="none" xmlns="http://www.w3.org/2000/svg">
<path d="M22.7914 3.62571C23.4589 2.95824 23.4589 1.87605 22.7914 1.20857C22.124 0.541096 21.0418 0.541096 20.3743 1.20857L13.4142 8.16864C12.6332 8.94969 11.3668 8.94969 10.5858 8.16864L3.62571 1.20857C2.95824 0.541095 1.87605 0.541096 1.20857 1.20857C0.541096 1.87605 0.541096 2.95824 1.20857 3.62571L8.16864 10.5858C8.94969 11.3668 8.94969 12.6332 8.16864 13.4142L1.20857 20.3743C0.541095 21.0418 0.541096 22.124 1.20857 22.7914C1.87605 23.4589 2.95824 23.4589 3.62571 22.7914L10.5858 15.8314C11.3668 15.0503 12.6332 15.0503 13.4142 15.8314L20.3743 22.7914C21.0418 23.4589 22.124 23.4589 22.7914 22.7914C23.4589 22.124 23.4589 21.0418 22.7914 20.3743L15.8314 13.4142C15.0503 12.6332 15.0503 11.3668 15.8314 10.5858L22.7914 3.62571Z" fill="white"/>
</svg>
