<svg width="24" height="24" viewBox="0 0 24 24" fill="none" xmlns="http://www.w3.org/2000/svg">
<path d="M6.032 11.9061V14.7712C6.032 14.8378 6.08637 14.8921 6.15293 14.8921H17.0036C17.0701 14.8921 17.1245 14.8378 17.1245 14.7712L17.1236 11.7844C17.1236 11.5866 17.2333 11.4057 17.4076 11.31C18.8889 10.4981 19.8967 8.89777 19.8967 7.05553C19.8967 4.39201 17.792 2.23297 15.1941 2.23297C14.9588 2.23297 14.7282 2.25078 14.5032 2.28547C13.6679 1.50454 12.5569 1.02734 11.3373 1.02734C10.0642 1.02734 8.90926 1.54766 8.06254 2.39047C7.87129 2.36703 7.67722 2.35297 7.47942 2.35297C4.88262 2.35297 2.77686 4.45765 2.77686 7.05553C2.77686 9.01866 3.97966 10.6997 5.68878 11.4036C5.89409 11.488 6.0319 11.6839 6.0319 11.9061L6.032 11.9061ZM15.0958 18.821C13.9258 18.5622 12.7436 18.8022 11.7114 19.4144C11.5998 19.481 11.4592 19.481 11.3467 19.4153C10.2114 18.7535 8.91116 18.5275 7.66148 18.8885C6.18586 19.3141 5.08532 20.471 4.5302 21.9588C4.51145 22.0094 4.52832 22.0666 4.57051 22.0985C5.83238 23.0622 7.38019 23.4541 8.85571 23.0285C9.88884 22.7303 10.7373 22.0732 11.3438 21.1957C11.3672 21.1619 11.416 21.161 11.4394 21.1947C12.1107 22.1163 13.0453 22.781 14.162 23.0275C15.662 23.3594 17.1817 22.871 18.3807 21.8294C18.421 21.7947 18.4341 21.7357 18.4126 21.6869C17.7676 20.2366 16.5957 19.1528 15.0958 18.8211L15.0958 18.821ZM6.9968 16.8166C6.9968 16.9084 6.99023 17.1128 7.11773 17.2084C7.33805 17.3744 7.64367 16.9881 8.20241 16.9881C8.76116 16.9881 9.0668 17.3735 9.28709 17.2084C9.41553 17.1119 9.40803 16.9075 9.40803 16.8166C9.40803 16.151 8.86803 15.611 8.20242 15.611C7.5368 15.611 6.9968 16.151 6.9968 16.8166H6.9968ZM13.8687 16.8166C13.8687 16.9084 13.8622 17.1128 13.9897 17.2084C14.21 17.3744 14.5156 16.9881 15.0743 16.9881C15.6331 16.9881 15.9387 17.3735 16.159 17.2084C16.2875 17.1119 16.28 16.9075 16.28 16.8166C16.28 16.151 15.74 15.611 15.0743 15.611C14.4087 15.611 13.8687 16.151 13.8687 16.8166H13.8687Z" fill="#5CA4A9"/>
</svg>