<svg width="134" height="122" viewBox="0 0 134 122" fill="none" xmlns="http://www.w3.org/2000/svg">
<path d="M134 51.9615C117.433 23.2658 80.7342 13.4325 52.0385 30C23.3375 46.5705 13.5095 83.2658 30.077 111.962L134 51.9615Z" fill="white"/>
<path d="M89 99C88.4484 99 88 98.5516 88 98V90C88 89.4484 88.4484 89 89 89C89.5516 89 90 89.4484 90 90V98C90 98.2656 89.8953 98.5203 89.7078 98.7078C89.5203 98.8953 89.2656 99 89 99L89 99Z" fill="white"/>
<path d="M93 95H85C84.4484 95 84 94.5516 84 94C84 93.4484 84.4484 93 85 93H93C93.5516 93 94 93.4484 94 94C94 94.5516 93.5516 95 93 95Z" fill="white"/>
<path d="M80.9998 111C80.5952 111 80.2311 110.756 80.0764 110.383C79.9217 110.01 80.0061 109.58 80.292 109.292L84.292 105.292C84.6842 104.911 85.3108 104.916 85.6967 105.303C86.0842 105.689 86.0889 106.316 85.7076 106.708L81.7076 110.708C81.5201 110.895 81.2654 111 80.9998 111L80.9998 111Z" fill="white"/>
<path d="M88.9994 111C88.7338 111 88.4791 110.895 88.2916 110.708L84.2916 106.708C83.9104 106.316 83.9151 105.689 84.3026 105.303C84.6885 104.916 85.315 104.911 85.7072 105.292L89.7073 109.292C89.9932 109.58 90.0776 110.009 89.9229 110.383C89.7682 110.756 89.4041 111 88.9994 111V111Z" fill="white"/>
<path d="M84.9994 115C84.7338 115 84.4791 114.895 84.2916 114.708L80.2916 110.708C79.9104 110.316 79.9151 109.689 80.3026 109.303C80.6885 108.916 81.315 108.911 81.7072 109.292L85.7073 113.292C85.9932 113.58 86.0776 114.009 85.9229 114.383C85.7682 114.756 85.4041 115 84.9994 115L84.9994 115Z" fill="white"/>
<path d="M84.9998 115C84.5951 115 84.2311 114.756 84.0764 114.383C83.9217 114.01 84.0061 113.58 84.292 113.292L88.292 109.292C88.6842 108.911 89.3108 108.916 89.6967 109.303C90.0842 109.689 90.0889 110.316 89.7076 110.708L85.7076 114.708C85.5201 114.895 85.2654 115 84.9998 115L84.9998 115Z" fill="white"/>
<path d="M72.9998 103C72.5951 103 72.2311 102.756 72.0764 102.383C71.9217 102.009 72.0061 101.58 72.292 101.292L76.292 97.2921C76.6842 96.9109 77.3108 96.9156 77.6967 97.3031C78.0842 97.689 78.0889 98.3155 77.7076 98.7077L73.7076 102.708C73.5201 102.895 73.2654 103 72.9998 103L72.9998 103Z" fill="white"/>
<path d="M76.9994 103C76.7338 103 76.4791 102.895 76.2916 102.708L72.2916 98.7077C71.9104 98.3155 71.9151 97.689 72.3026 97.3031C72.6885 96.9156 73.315 96.9109 73.7072 97.2921L77.7072 101.292C77.9932 101.58 78.0776 102.009 77.9229 102.383C77.7682 102.756 77.4041 103 76.9994 103L76.9994 103Z" fill="white"/>
</svg>
