<svg width="16" height="16" viewBox="0 0 16 16" fill="none" xmlns="http://www.w3.org/2000/svg">
<path d="M13.0911 2.90885C11.6848 1.50322 9.84228 0.800049 7.99988 0.800049C6.15748 0.800049 4.31492 1.50317 2.90868 2.90885C0.0968448 5.72069 0.0968448 10.2794 2.90868 13.0914C4.31494 14.497 6.15748 15.2002 7.99988 15.2002C9.84228 15.2002 11.6848 14.4971 13.0911 13.0914C15.9029 10.2796 15.9029 5.72085 13.0911 2.90885ZM4.18164 4.18197C5.20164 3.16197 6.55732 2.6001 7.99972 2.6001C9.15347 2.6001 10.2485 2.96509 11.164 3.63072C11.0947 3.67009 11.0228 3.70509 10.9634 3.76385L3.76342 10.9638C3.7078 11.0195 3.67592 11.0876 3.63779 11.1526C2.1128 9.04316 2.28279 6.08012 4.18154 4.18204L4.18164 4.18197ZM11.818 11.8183C10.798 12.8383 9.44228 13.4002 7.99988 13.4002C6.84614 13.4002 5.75108 13.0352 4.83556 12.3695C4.90494 12.3302 4.97681 12.2952 5.03619 12.2364L12.2362 5.03641C12.2918 4.98079 12.3237 4.91266 12.3618 4.84766C13.8868 6.9571 13.7168 9.92014 11.8181 11.8182L11.818 11.8183Z" fill="#ED6A5A"/>
</svg>
