<svg width="12" height="16" viewBox="0 0 12 16" fill="none" xmlns="http://www.w3.org/2000/svg">
<path fill-rule="evenodd" clip-rule="evenodd" d="M8.86196 0.963118C8.84508 0.966868 8.82883 0.971868 8.81258 0.978118C7.42383 1.41749 6.35323 2.6906 5.77259 4.09748C5.27321 5.3081 5.11947 6.64372 5.54571 7.69188C4.98383 7.6625 4.55321 7.4725 4.29196 7.08188C3.95884 6.58375 3.85134 5.64625 4.31196 4.09244C4.34821 3.96931 4.30759 3.83618 4.21009 3.75431C4.11196 3.67243 3.97508 3.65806 3.86258 3.71743C1.13634 5.13993 0.0425813 7.96799 0.501301 10.4406C0.960677 12.9138 3.01314 15.0394 6.37938 15.0394C7.95188 15.0394 9.31058 14.4862 10.2437 13.455C11.1768 12.4237 11.6731 10.9313 11.5912 9.10619C11.5081 6.99995 10.3849 5.96619 9.61681 5.05243C9.23306 4.59555 8.9393 4.17243 8.82743 3.63305C8.71555 3.09367 8.77931 2.40993 9.19743 1.40873V1.40811C9.24368 1.30186 9.22868 1.17811 9.1593 1.08561C9.0893 0.99311 8.97556 0.946235 8.8618 0.96311L8.86196 0.963118Z" fill="#ED6A5A"/>
</svg>