<svg width="16" height="14" viewBox="0 0 16 14" fill="none" xmlns="http://www.w3.org/2000/svg">
<path d="M0.208364 6.77626L3.23204 4.9681C3.31204 4.91998 3.42392 4.91998 3.50392 4.9681L6.6076 6.77626C6.78385 6.87251 6.78385 7.12813 6.6076 7.24L3.50392 9.04816C3.42392 9.09629 3.31204 9.09629 3.23204 9.04816L0.208364 7.24C0.0321079 7.12813 0.0321079 6.88813 0.208364 6.77626Z" fill="#A0A0A0"/>
<path d="M9.39214 6.77626L12.4158 4.9681C12.4958 4.91998 12.6077 4.91998 12.6877 4.9681L15.7914 6.77626C15.9676 6.87251 15.9676 7.12813 15.7914 7.24L12.6882 9.04816C12.6082 9.09629 12.4963 9.09629 12.4163 9.04816L9.39198 7.24C9.21635 7.12813 9.21635 6.88813 9.39198 6.77626H9.39214Z" fill="#A0A0A0"/>
<path d="M3.90408 13.64L3.84033 10.12C3.84033 10.0238 3.88846 9.92814 3.96846 9.88001L7.08846 8.10369C7.26471 8.00744 7.48846 8.13557 7.48846 8.32743L7.52033 11.9281C7.52033 12.0243 7.47221 12.1199 7.37658 12.1681L4.3041 13.8638C4.12847 13.9763 3.92036 13.8481 3.9041 13.64H3.90408Z" fill="#A0A0A0"/>
<path d="M8.49637 5.68811L8.43262 2.16811C8.43262 2.07186 8.48074 1.97623 8.56074 1.92811L11.6964 0.151786C11.8727 0.0555368 12.0964 0.183662 12.0964 0.37553L12.1127 3.95921C12.1127 4.05546 12.0645 4.15108 11.9689 4.19921L8.89644 5.91169C8.72019 6.00794 8.51207 5.89606 8.49644 5.68795L8.49637 5.68811Z" fill="#A0A0A0"/>
<path d="M11.6967 13.8482L8.60859 12.1363C8.52859 12.0882 8.46484 11.9926 8.46484 11.8963L8.48109 8.31266C8.48109 8.10453 8.70484 7.9764 8.88109 8.08891L12.0011 9.86523C12.0811 9.91336 12.1448 10.009 12.1292 10.1052L12.0655 13.6252C12.0805 13.8165 11.8723 13.944 11.6967 13.8484L11.6967 13.8482Z" fill="#A0A0A0"/>
<path d="M7.10383 5.8963L4.01631 4.18382C3.93631 4.1357 3.87256 4.04007 3.87256 3.94382L3.88881 0.360141C3.88881 0.152013 4.11255 0.0238851 4.28881 0.136397L7.40881 1.91272C7.48881 1.96084 7.55256 2.05647 7.53693 2.15272L7.47318 5.67272C7.48818 5.86397 7.28006 5.99209 7.10381 5.89646L7.10383 5.8963Z" fill="#A0A0A0"/>
</svg>
