<svg width="64" height="66" viewBox="0 0 64 66" fill="none" xmlns="http://www.w3.org/2000/svg">
<path d="M0 34C0 51.672 14.328 66 32 66C49.6752 66 64 51.672 64 34H0Z" fill="#FFFFFF"/>
<path d="M24.7207 0.93335H1.9458C0.996837 0.93335 0.227051 1.70314 0.227051 2.6521V25.8812C0.227051 26.3374 0.408301 26.7739 0.730171 27.0968C1.05308 27.4187 1.48956 27.5999 1.9458 27.5999H24.7207C25.177 27.5999 25.6134 27.4187 25.9364 27.0968C26.2582 26.7739 26.4395 26.3374 26.4395 25.8812V2.6521C26.4395 2.19586 26.2582 1.75938 25.9364 1.43647C25.6134 1.1146 25.177 0.93335 24.7207 0.93335V0.93335ZM14.9125 18.2251H4.85726C4.28748 18.2251 3.82601 17.7636 3.82601 17.1938C3.82601 16.624 4.28748 16.1626 4.85726 16.1626H14.9125C15.4822 16.1626 15.9448 16.624 15.9448 17.1938C15.9448 17.7636 15.4822 18.2251 14.9125 18.2251ZM21.8082 13.0688H4.85726C4.28748 13.0688 3.82601 12.6074 3.82601 12.0376C3.82601 11.4678 4.28748 11.0063 4.85726 11.0063H21.8093C22.379 11.0063 22.8405 11.4678 22.8405 12.0376C22.8405 12.6074 22.379 13.0688 21.8093 13.0688H21.8082ZM21.8082 7.91255L4.85726 7.91151C4.28748 7.91151 3.82601 7.45004 3.82601 6.88026C3.82601 6.31151 4.28748 5.849 4.85726 5.849H21.8093C22.379 5.849 22.8405 6.31151 22.8405 6.88026C22.8405 7.45004 22.379 7.91151 21.8093 7.91151L21.8082 7.91255Z" fill="#FFFFF"/>
<path d="M53.5208 0.93335H30.7458C29.7969 0.93335 29.0271 1.70314 29.0271 2.6521V25.8812C29.0271 26.3374 29.2084 26.7739 29.5302 27.0968C29.8531 27.4187 30.2896 27.5999 30.7458 27.5999H53.5208C53.977 27.5999 54.4135 27.4187 54.7364 27.0968C55.0583 26.7739 55.2395 26.3374 55.2395 25.8812V2.6521C55.2395 2.19586 55.0583 1.75938 54.7364 1.43647C54.4135 1.1146 53.977 0.93335 53.5208 0.93335V0.93335ZM43.7125 18.2251H33.6573C33.0875 18.2251 32.6261 17.7636 32.6261 17.1938C32.6261 16.624 33.0875 16.1626 33.6573 16.1626H43.7125C44.2823 16.1626 44.7448 16.624 44.7448 17.1938C44.7448 17.7636 44.2823 18.2251 43.7125 18.2251ZM50.6083 13.0688H33.6573C33.0875 13.0688 32.6261 12.6074 32.6261 12.0376C32.6261 11.4678 33.0875 11.0063 33.6573 11.0063H50.6093C51.1791 11.0063 51.6406 11.4678 51.6406 12.0376C51.6406 12.6074 51.1791 13.0688 50.6093 13.0688H50.6083ZM50.6083 7.91255L33.6573 7.91151C33.0875 7.91151 32.6261 7.45004 32.6261 6.88026C32.6261 6.31151 33.0875 5.849 33.6573 5.849H50.6093C51.1791 5.849 51.6406 6.31151 51.6406 6.88026C51.6406 7.45004 51.1791 7.91151 50.6093 7.91151L50.6083 7.91255Z" fill="#FFFFF"/>
</svg>
