<svg width="100" height="100" viewBox="0 0 100 100" fill="none" xmlns="http://www.w3.org/2000/svg">
<path d="M94.5001 73.6021V77.0005C94.5001 79.5005 92.3985 81.6021 89.8985 81.6021H9.89848C7.39848 81.6021 5.29688 79.5005 5.29688 77.0005V73.6021H94.5001Z" fill="#9BC1BC"/>
<path d="M89.0002 28.301V63C89.0002 67.5 85.301 71.1992 80.801 71.1992H19.5C15 71.1992 11.3008 67.5 11.3008 63V28.301C11.3008 23.801 15 20.1018 19.5 20.1018H80.801C85.301 20.1018 89.0002 23.801 89.0002 28.301V28.301ZM81.8986 62.602V28.301C81.8986 27.301 81.1994 26.6018 80.1994 26.6018H19.6014C18.6014 26.6018 17.9022 27.4026 17.9022 28.301V62.602C17.9022 63.602 18.703 64.3012 19.6014 64.3012H23.8006C24.3982 54.1992 31.3006 48.0002 36.3006 48.0002C37.8006 48.0002 39.699 48.6018 41.3006 49.6994C39.6014 51.0002 38.199 52.5978 36.8006 54.6994C34.9998 57.5978 33.6014 61.0002 32.8006 64.3986H36.4022C37.703 58.6994 40.8006 54.3986 44.203 52.1996C45.1014 51.5004 46.1014 51.098 47.0038 50.6996C47.8046 50.3988 48.8046 50.1996 49.703 50.1996C50.703 50.1996 51.703 50.5004 52.9022 50.8988C53.8006 51.2973 54.8006 51.6996 55.6014 52.3988C58.9998 54.6996 61.9022 58.7972 63.1014 64.2968H66.3006C65.6014 60.7968 64.199 57.3984 62.3006 54.5976C60.9998 52.6992 59.6014 51.0976 58.1014 49.8984C59.9022 48.6992 61.8006 48 63.4022 48C68.4022 48 75.4022 54.1992 76.1012 64.301H80.3004C81.1988 64.3987 81.8981 63.6018 81.8981 62.6018L81.8986 62.602Z" fill="#9BC1BC"/>
<path d="M70.1993 38.3011C70.1993 39.8011 69.6993 41.0003 68.8985 42.1995C68.5977 42.5003 68.5 42.6995 68.2969 42.8987C67.0977 44.1995 65.3985 44.8987 63.4961 44.8987C61.9961 44.8987 60.6953 44.5003 59.5977 43.5979C60.0977 42.1995 60.3985 40.8987 60.3985 39.2971C60.3985 37.2971 59.7969 35.2971 58.7969 33.4963C59.9961 32.2971 61.5977 31.4963 63.4961 31.4963C67.1016 31.5002 70.1992 34.6018 70.1992 38.301L70.1993 38.3011Z" fill="#9BC1BC"/>
<path d="M49.6021 31.801C53.6021 31.801 56.9029 35.0002 56.9029 39.1018C56.9029 43.2034 53.6021 46.4026 49.6021 46.4026C45.6021 46.4026 42.3013 43.2034 42.3013 39.1018C42.3013 35.1995 45.6021 31.8987 49.6021 31.801Z" fill="#9BC1BC"/>
<path d="M40.6992 33.3009C39.5 35.0001 38.8008 37.1017 38.8008 39.4025C38.8008 41.0041 39.1016 42.5041 39.6992 44.0041C38.8008 44.7033 37.5 45.0041 36.3008 45.0041C34.4024 45.0041 32.6992 44.2033 31.5 43.0041C31.3985 42.7033 31.1016 42.5041 30.8985 42.2033C30.0977 41.1017 29.5977 39.8049 29.5977 38.3049C29.5977 34.6057 32.5977 31.6057 36.2969 31.6057C38.1016 31.6995 39.5 32.1995 40.6992 33.301L40.6992 33.3009Z" fill="#9BC1BC"/>
</svg>
