<svg width="32" height="32" viewBox="0 0 32 32" fill="none" xmlns="http://www.w3.org/2000/svg">
<g clip-path="url(#clip0)">
<path d="M27.7626 -0.0200195H6.0224C5.28489 -0.0187695 4.68864 0.57998 4.68739 1.31748V3.90248C3.63363 4.17998 2.8999 4.92248 2.8999 5.81499C2.8999 6.69 3.62739 7.445 4.68489 7.7275V9.065C3.63363 9.3425 2.8999 10.0838 2.8999 10.9775C2.8999 11.8525 3.62739 12.6075 4.68489 12.8888V14.2275C3.63363 14.5063 2.8999 15.25 2.8999 16.1425C2.8999 17.0175 3.62739 17.7726 4.68489 18.0538V19.3926C3.63363 19.6701 2.8999 20.4113 2.8999 21.3051C2.8999 22.1801 3.62739 22.9338 4.68489 23.2163V24.5538C3.63363 24.8313 2.8999 25.5726 2.8999 26.4663C2.8999 27.3414 3.62739 28.0964 4.68489 28.3789V30.6001C4.68614 31.3389 5.28365 31.9364 6.0224 31.9376H27.7626C28.5013 31.9364 29.1001 31.3389 29.1001 30.6001V1.31755C29.1001 0.578797 28.5013 -0.0199555 27.7626 -0.0199555V-0.0200195ZM4.15008 5.81486C4.15008 5.60486 4.35508 5.37736 4.68509 5.22484V6.4036C4.34509 6.24485 4.15008 6.01358 4.15008 5.81486ZM4.15008 10.9774C4.15008 10.7674 4.35508 10.5399 4.68509 10.3874V11.5649C4.34509 11.4074 4.15008 11.1774 4.15008 10.9787V10.9774ZM4.15008 16.14C4.15008 15.93 4.35508 15.7025 4.68509 15.55V16.7275C4.34509 16.57 4.15008 16.34 4.15008 16.1425V16.14ZM4.15008 21.3025C4.15008 21.0925 4.35508 20.865 4.68509 20.7125V21.89C4.34509 21.7338 4.15008 21.5 4.15008 21.305V21.3025ZM4.15008 26.4651C4.15008 26.2551 4.35508 26.0276 4.68509 25.8751V27.0563C4.34509 26.8976 4.15008 26.6651 4.15008 26.4676V26.4651ZM27.8499 30.6001C27.8499 30.6489 27.8112 30.6876 27.7624 30.6876H6.02226C5.97476 30.6864 5.93726 30.6476 5.93726 30.6001V25.7089C6.60475 25.7977 7.07227 26.1464 7.07227 26.4677C7.07227 26.8127 7.35227 27.0927 7.69726 27.0927C8.04225 27.0927 8.32225 26.8127 8.32225 26.4677C8.32225 25.4127 7.29726 24.5689 5.93726 24.4527V20.5464C6.60475 20.6364 7.07227 20.9839 7.07227 21.3064V21.3052C7.07227 21.6502 7.35227 21.9302 7.69726 21.9302C8.04225 21.9302 8.32225 21.6502 8.32225 21.3052C8.32225 20.2489 7.29726 19.4052 5.93726 19.2889V15.3827C6.60475 15.4714 7.07227 15.8202 7.07227 16.1414V16.1427C7.07227 16.4877 7.35227 16.7677 7.69726 16.7677C8.04225 16.7677 8.32225 16.4877 8.32225 16.1427C8.32225 15.0864 7.29726 14.2427 5.93726 14.1264V10.2202C6.60475 10.309 7.07227 10.6577 7.07227 10.979C7.07227 11.3239 7.35227 11.6039 7.69726 11.6039C8.04225 11.6039 8.32225 11.3239 8.32225 10.979C8.32225 9.92395 7.29726 9.0802 5.93726 8.9627V5.05774C6.60475 5.14649 7.07227 5.49524 7.07227 5.81649V5.81524C7.07227 6.16148 7.35227 6.44023 7.69726 6.44023C8.04225 6.44023 8.32225 6.16149 8.32225 5.81524C8.32225 4.76023 7.29726 3.91649 5.93726 3.80023V1.31774C5.93726 1.26899 5.97601 1.23024 6.02476 1.23024H27.7624C27.8111 1.23024 27.8499 1.26899 27.8499 1.31774L27.8499 30.6001Z" fill="#333333"/>
<path d="M14.1901 14.4612C14.1901 16.0687 11.7776 16.0687 11.7776 14.4612C11.7776 12.8537 14.1901 12.8537 14.1901 14.4612Z" fill="#333333"/>
<path d="M23.5726 14.4612C23.5726 16.0687 21.1626 16.0687 21.1626 14.4612C21.1626 12.8537 23.5726 12.8537 23.5726 14.4612Z" fill="#333333"/>
<path d="M21.2074 16.1875H14.145C13.8 16.1875 13.52 16.4675 13.52 16.8125C13.52 17.1575 13.8 17.4375 14.145 17.4375H14.78V19.1375C14.78 19.3037 14.8463 19.4625 14.9625 19.58C15.08 19.6975 15.2388 19.7625 15.405 19.7625H19.8201C19.9863 19.7625 20.145 19.6975 20.2625 19.58C20.3788 19.4625 20.445 19.3037 20.445 19.1375V17.4375H21.21C21.5563 17.4375 21.835 17.1575 21.835 16.8125C21.835 16.4675 21.5563 16.1875 21.21 16.1875H21.2074ZM16.0273 17.4375H16.9848V18.5125H16.0273V17.4375ZM19.1922 18.5125H18.2347V17.4375H19.1922V18.5125Z" fill="#333333"/>
</g>
<defs>
<clipPath id="clip0">
<rect width="32" height="32" fill="white"/>
</clipPath>
</defs>
</svg>
