<svg width="64" height="64" viewBox="0 0 64 64" fill="none" xmlns="http://www.w3.org/2000/svg">
<g clip-path="url(#clip0)">
<path d="M55.5251 -0.0400391H12.0448C10.5698 -0.0375391 9.37728 1.15996 9.37478 2.63497V7.80495C7.26726 8.35995 5.7998 9.84495 5.7998 11.63C5.7998 13.38 7.25478 14.89 9.36979 15.455V18.13C7.26726 18.685 5.7998 20.1675 5.7998 21.955C5.7998 23.705 7.25478 25.2151 9.36979 25.7776V28.4551C7.26726 29.0126 5.7998 30.5001 5.7998 32.2851C5.7998 34.0351 7.25478 35.5451 9.36979 36.1076V38.7851C7.26726 39.3401 5.7998 40.8226 5.7998 42.6101C5.7998 44.3602 7.25478 45.8676 9.36979 46.4327V49.1077C7.26726 49.6627 5.7998 51.1452 5.7998 52.9327C5.7998 54.6827 7.25478 56.1927 9.36979 56.7577V61.2002C9.37229 62.6777 10.5673 63.8727 12.0448 63.8752H55.5251C57.0026 63.8727 58.2001 62.6777 58.2001 61.2002V2.6351C58.2001 1.15759 57.0026 -0.0399111 55.5251 -0.0399111V-0.0400391ZM8.30016 11.6297C8.30016 11.2097 8.71015 10.7547 9.37017 10.4497V12.8072C8.69017 12.4897 8.30016 12.0272 8.30016 11.6297ZM8.30016 21.9548C8.30016 21.5348 8.71015 21.0798 9.37017 20.7748V23.1298C8.69017 22.8148 8.30016 22.3548 8.30016 21.9573V21.9548ZM8.30016 32.28C8.30016 31.86 8.71015 31.405 9.37017 31.0999V33.4549C8.69017 33.1399 8.30016 32.68 8.30016 32.285V32.28ZM8.30016 42.6051C8.30016 42.1851 8.71015 41.7301 9.37017 41.425V43.7801C8.69017 43.4676 8.30016 43 8.30016 42.6101V42.6051ZM8.30016 52.9302C8.30016 52.5102 8.71015 52.0552 9.37017 51.7502V54.1127C8.69017 53.7952 8.30016 53.3301 8.30016 52.9352V52.9302ZM55.6998 61.2003C55.6998 61.2978 55.6223 61.3753 55.5248 61.3753H12.0445C11.9495 61.3728 11.8745 61.2953 11.8745 61.2003V51.4179C13.2095 51.5954 14.1445 52.2929 14.1445 52.9354C14.1445 53.6254 14.7045 54.1854 15.3945 54.1854C16.0845 54.1854 16.6445 53.6254 16.6445 52.9354C16.6445 50.8254 14.5945 49.1379 11.8745 48.9054V41.0929C13.2095 41.2729 14.1445 41.9679 14.1445 42.6129V42.6104C14.1445 43.3004 14.7045 43.8604 15.3945 43.8604C16.0845 43.8604 16.6445 43.3004 16.6445 42.6104C16.6445 40.4979 14.5945 38.8104 11.8745 38.5779V30.7654C13.2095 30.9429 14.1445 31.6404 14.1445 32.2829V32.2854C14.1445 32.9754 14.7045 33.5354 15.3945 33.5354C16.0845 33.5354 16.6445 32.9754 16.6445 32.2854C16.6445 30.1729 14.5945 28.4854 11.8745 28.2529V20.4404C13.2095 20.6179 14.1445 21.3154 14.1445 21.9579C14.1445 22.6479 14.7045 23.2079 15.3945 23.2079C16.0845 23.2079 16.6445 22.6479 16.6445 21.9579C16.6445 19.8479 14.5945 18.1604 11.8745 17.9254V10.1155C13.2095 10.293 14.1445 10.9905 14.1445 11.633V11.6305C14.1445 12.323 14.7045 12.8805 15.3945 12.8805C16.0845 12.8805 16.6445 12.323 16.6445 11.6305C16.6445 9.52047 14.5945 7.83298 11.8745 7.60047V2.63548C11.8745 2.53798 11.952 2.46048 12.0495 2.46048H55.5247C55.6222 2.46048 55.6997 2.53797 55.6997 2.63548L55.6998 61.2003Z" fill="#333333"/>
<path d="M28.3802 28.9225C28.3802 32.1374 23.5552 32.1374 23.5552 28.9225C23.5552 25.7075 28.3802 25.7075 28.3802 28.9225Z" fill="#333333"/>
<path d="M47.1452 28.9225C47.1452 32.1374 42.3252 32.1374 42.3252 28.9225C42.3252 25.7075 47.1452 25.7075 47.1452 28.9225Z" fill="#333333"/>
<path d="M42.4148 32.375H28.29C27.6 32.375 27.04 32.935 27.04 33.625C27.04 34.315 27.6 34.875 28.29 34.875H29.56V38.275C29.56 38.6075 29.6925 38.925 29.925 39.16C30.16 39.395 30.4775 39.525 30.81 39.525H39.6401C39.9726 39.525 40.2901 39.395 40.5251 39.16C40.7576 38.925 40.8901 38.6075 40.8901 38.275V34.875H42.4201C43.1126 34.875 43.6701 34.315 43.6701 33.625C43.6701 32.935 43.1126 32.375 42.4201 32.375H42.4148ZM32.0545 34.875H33.9695V37.025H32.0545V34.875ZM38.3845 37.025H36.4695V34.875H38.3845V37.025Z" fill="#333333"/>
</g>
<defs>
<clipPath id="clip0">
<rect width="64" height="64" fill="white"/>
</clipPath>
</defs>
</svg>
