<svg width="14" height="15" viewBox="0 0 14 15" fill="none" xmlns="http://www.w3.org/2000/svg">
<path d="M0.308268 4.03682C0.345768 4.12776 0.401081 4.2112 0.470455 4.28057L2.72046 6.53057C3.01484 6.81557 3.48265 6.81089 3.77233 6.52213C4.06107 6.23245 4.06578 5.76464 3.78076 5.47026L2.81045 4.49994H13.0001C13.4145 4.49994 13.7501 4.16432 13.7501 3.74994C13.7501 3.33555 13.4145 2.99994 13.0001 2.99994H2.81045L3.77983 2.03055H3.78077C4.06483 1.73617 4.06015 1.26836 3.77139 0.978682C3.48171 0.689938 3.0139 0.685233 2.71952 0.969306L0.46952 3.21931C0.254833 3.43399 0.191072 3.7565 0.307332 4.03679L0.308268 4.03682Z" fill="#5CA4A9"/>
<path d="M13.6919 10.9631C13.6544 10.8722 13.599 10.7888 13.5297 10.7194L11.2797 8.46939C10.9853 8.18439 10.5175 8.18907 10.2278 8.47783C9.93906 8.76751 9.93435 9.23532 10.2194 9.5297L11.1897 10.5H1C0.585616 10.5 0.25 10.8356 0.25 11.25C0.25 11.6644 0.585616 12 1 12H11.1897L10.2203 12.9694H10.2194C10.075 13.1091 9.99249 13.3013 9.99061 13.5029C9.98874 13.7035 10.0684 13.8975 10.21 14.0401C10.3525 14.1816 10.5465 14.2613 10.7472 14.2594C10.9487 14.2576 11.1409 14.175 11.2806 14.0307L13.5306 11.7807C13.7453 11.566 13.8091 11.2435 13.6928 10.9632L13.6919 10.9631Z" fill="#5CA4A9"/>
</svg>
